<svg width="84" height="64" viewBox="0 0 84 64" fill="none" xmlns="http://www.w3.org/2000/svg">
<path d="M30.6963 4.15771V5.49777H33.2936V15.7385H34.7588V5.49777H37.3228V4.15771H30.6963ZM47.582 0.033088V0.711392C47.3271 0.899579 47.0274 1.05675 46.683 1.1829C46.3385 1.31008 45.9837 1.41244 45.6174 1.48896C45.2511 1.56651 44.8983 1.62131 44.5601 1.6544C44.2219 1.68749 43.941 1.70403 43.7193 1.70403V1.22426C44.0305 1.22426 44.4134 1.18083 44.8682 1.0919C45.3229 1.00401 45.7839 0.868559 46.2501 0.686576C46.7163 0.504592 47.1273 0.276078 47.4821 0L47.582 0.033088ZM44.9015 2.99446V3.47424C44.3801 3.47424 43.8525 3.39772 43.3198 3.24262C42.787 3.08856 42.3593 2.81248 42.0377 2.41542H41.9378C41.6163 2.81248 41.1886 3.08856 40.6558 3.24262C40.123 3.39772 39.5903 3.47424 39.0575 3.47424V2.99446C39.6236 2.99446 40.1178 2.87865 40.5393 2.64704C40.9607 2.41542 41.3052 2.10729 41.5716 1.72057H42.404C42.6819 2.11763 43.0284 2.4299 43.4446 2.65531C43.8609 2.88176 44.3468 2.99446 44.9015 2.99446ZM53.3043 4.15771V5.49777H50.7402V13.9197C50.3271 14.0531 49.9161 14.1555 49.5134 14.2258C49.4322 14.2402 49.3521 14.2537 49.2751 14.2661V5.49777H46.6778V4.15771H53.3043ZM46.5133 7.32278C46.4218 7.03223 46.3115 6.76339 46.1835 6.51523C46.1065 6.36633 46.0253 6.22468 45.94 6.08922C45.6653 5.65287 45.3479 5.2858 44.9878 4.98905C44.7006 5.27236 44.3832 5.6446 44.0315 6.13472C43.7027 6.59175 43.3447 7.15011 42.9535 7.83358C42.507 8.61425 42.1116 9.38871 41.814 10.0039L40.5403 7.92767L39.8171 9.52934L42.0159 13.1132L42.5726 11.8259C42.5799 11.8093 43.2969 10.1601 44.2251 8.5398C44.4759 8.10242 44.7069 7.72914 44.9171 7.41067C45.1325 7.89148 45.2698 8.46122 45.3302 9.11884C45.3552 9.38148 45.3676 9.65755 45.3676 9.94811C45.3676 10.9738 45.2147 11.829 44.9098 12.5124C44.6049 13.1969 44.197 13.7067 43.686 14.0427C43.4072 14.2268 43.1116 14.3602 42.7995 14.4429C42.5403 14.5132 42.2698 14.5473 41.9878 14.5473C41.787 14.5473 41.5924 14.5308 41.403 14.4967C40.9982 14.4233 40.6215 14.2723 40.2729 14.0427C39.762 13.7067 39.3603 13.1969 39.0658 12.5124C38.7734 11.8341 38.6267 10.9862 38.6246 9.97086V9.94811C38.6246 9.4766 38.6558 9.04129 38.7182 8.6432C38.7911 8.17583 38.9066 7.7581 39.0658 7.39206C39.3603 6.71376 39.762 6.204 40.2729 5.86174C40.7838 5.52052 41.3551 5.34888 41.9878 5.34888C42.3239 5.34888 42.6444 5.39954 42.9493 5.50191C43.2688 5.05005 43.5789 4.66127 43.8858 4.33246C43.2917 4.08326 42.659 3.95918 41.9878 3.95918C41.122 3.95918 40.3197 4.16598 39.5819 4.57958C38.8442 4.99318 38.2469 5.6384 37.7921 6.51523C37.3374 7.39206 37.1095 8.5367 37.1095 9.94811C37.1095 11.3595 37.3374 12.4907 37.7921 13.3727C38.2469 14.2547 38.8442 14.903 39.5819 15.3166C40.3197 15.7302 41.122 15.937 41.9878 15.937C42.6808 15.937 43.3333 15.8047 43.9441 15.5389C44.0971 15.4738 44.2469 15.3994 44.3936 15.3166C44.5705 15.2174 44.7402 15.1047 44.9004 14.9775C45.4103 14.5784 45.838 14.0427 46.1835 13.3727C46.6382 12.4907 46.8661 11.3492 46.8661 9.94811C46.8661 8.93582 46.7485 8.06002 46.5133 7.32278Z" fill="url(#paint0_linear_3822_3892)"/>
<path d="M15.2151 21.615V24.3892H12.3016V36.6697H9.25729V24.3892H6.2998V21.615H15.2151ZM29.0126 15.9809V17.0987C28.6791 17.3427 28.2808 17.5433 27.8166 17.7015C27.3524 17.8586 26.8716 17.9848 26.3708 18.0778C25.8711 18.1709 25.3923 18.235 24.9354 18.2712C24.4796 18.3074 24.0991 18.3249 23.7938 18.3249V17.5288C24.2141 17.5288 24.7326 17.475 25.3494 17.3675C25.9652 17.26 26.5882 17.0883 27.2186 16.8515C27.8501 16.6148 28.3968 16.3108 28.861 15.9375L29.0126 15.9809ZM25.1351 20.0238V20.8189C24.4096 20.8189 23.6966 20.7186 22.993 20.518C22.2895 20.3174 21.7281 19.9586 21.3078 19.4427H21.1123C20.6921 19.9586 20.1265 20.3174 19.4167 20.518C18.7058 20.7186 17.9949 20.8189 17.2851 20.8189V20.0238C18.0388 20.0238 18.6734 19.8656 19.1877 19.5502C19.7021 19.2348 20.1192 18.8264 20.438 18.3249H21.9821C22.3156 18.8409 22.7359 19.2524 23.2429 19.5616C23.751 19.8697 24.3814 20.0238 25.1351 20.0238ZM26.6792 24.6911C26.6489 24.6332 26.6186 24.5763 26.5872 24.5205C26.1032 24.9651 25.3327 25.8595 24.2371 27.6545C23.0934 29.5301 22.2017 31.4006 22.1923 31.4192L21.3653 33.1604L17.9228 28.0526L19.1428 25.9495L21.0663 28.8043C21.4385 28.1063 21.9079 27.2636 22.4306 26.4147C23.4781 24.7118 24.395 23.5258 25.2386 22.8C24.9605 22.5549 24.6605 22.343 24.3416 22.1651C23.3767 21.6274 22.3303 21.3586 21.1991 21.3586C20.068 21.3586 19.0215 21.6274 18.0576 22.1651C17.0927 22.7028 16.3139 23.5444 15.7201 24.6921C15.1252 25.8388 14.8283 27.3226 14.8283 29.1434C14.8283 30.9642 15.1252 32.448 15.7201 33.5957C16.3139 34.7424 17.0927 35.585 18.0576 36.1227C19.0215 36.6604 20.069 36.9292 21.1991 36.9292C22.1452 36.9292 23.0317 36.741 23.8607 36.3647C24.0238 36.2912 24.1838 36.2106 24.3416 36.1227C24.3437 36.1227 24.3448 36.1206 24.3469 36.1196C25.3087 35.5819 26.0854 34.7403 26.6792 33.5957C27.273 32.448 27.5709 30.9642 27.5709 29.1434C27.5709 27.3226 27.273 25.8388 26.6792 24.6921V24.6911ZM36.1308 21.615V24.3892H33.2172V34.6359C32.5001 34.8892 31.7892 35.0784 31.1013 35.1952C30.7668 35.2511 30.4563 35.2966 30.173 35.3265V24.3892H27.2155V21.615H36.1308ZM48.5567 27.7775H44.2349V21.613H41.1509V36.648H44.2349V30.4834H48.5567V36.648H51.6187V21.613H48.5567V27.7775ZM63.3452 22.5694V22.4484C63.9442 22.3791 64.4021 22.1455 64.7136 21.7422C65.09 21.2552 65.2781 20.6255 65.2781 19.8521H64.1271C64.1271 20.4249 64.0216 20.8727 63.8125 21.1942C63.6023 21.5168 63.2657 21.6771 62.8026 21.6771C62.5423 21.6771 62.2663 21.6481 61.9778 21.5913C61.6882 21.5344 61.3547 21.4806 60.9794 21.43C60.603 21.3803 60.1389 21.3545 59.589 21.3545C58.4599 21.3545 57.4135 21.6233 56.4506 22.1599C55.4878 22.6966 54.71 23.5382 54.1162 24.6839C53.5224 25.8295 53.2255 27.3112 53.2255 29.13C53.2255 30.9487 53.5224 32.4304 54.1162 33.576C54.709 34.7217 55.4878 35.5623 56.4506 36.1C57.4135 36.6366 58.4599 36.9054 59.589 36.9054C60.718 36.9054 61.7634 36.6366 62.7273 36.1C63.6902 35.5633 64.4679 34.7217 65.0617 33.576C65.6545 32.4304 65.9514 30.9487 65.9514 29.13C65.9514 27.3112 65.6545 25.8295 65.0617 24.6839C64.6007 23.7947 64.0289 23.0905 63.3462 22.5673L63.3452 22.5694ZM62.4116 31.8586C62.122 32.5886 61.7269 33.1366 61.2282 33.5016C60.7285 33.8666 60.1817 34.0496 59.5879 34.0496C58.9941 34.0496 58.4547 33.8666 57.9696 33.5016C57.4846 33.1366 57.1009 32.5886 56.8186 31.8586C56.5364 31.1286 56.3952 30.2187 56.3952 29.131C56.3952 28.0432 56.5364 27.1375 56.8186 26.4137C57.1009 25.691 57.4846 25.143 57.9696 24.7707C58.4547 24.3985 59.0014 24.2124 59.6099 24.2124C60.2183 24.2124 60.7243 24.3913 61.2167 24.749C61.7091 25.1068 62.1032 25.6517 62.4001 26.3817C62.697 27.1116 62.8455 28.0288 62.8455 29.131C62.8455 30.2332 62.7001 31.1286 62.4116 31.8586ZM74.7245 21.613L74.8552 31.0635H74.6158L70.8586 21.613H67.5363V36.648H70.5115L70.3808 27.3257H70.6202L74.3775 36.648H77.6998V21.613H74.7245Z" fill="url(#paint1_linear_3822_3892)"/>
<path d="M11.5652 44.2184V49.0223H8.46108V63.3267H3.24146V49.0223H0V44.2184H11.5652ZM26.8182 48.7845C26.1939 49.3056 25.1939 50.3706 23.7672 52.54C22.2719 54.8137 21.1189 57.0834 21.1074 57.1061L19.8213 59.6456L14.9117 52.328L16.6641 48.9737L19.4768 53.1676C19.9305 52.3859 20.4748 51.4905 21.0731 50.5888C22.5279 48.3967 23.8036 46.8902 24.9899 45.9958C24.556 45.5656 24.0804 45.2048 23.5622 44.9142C22.3437 44.2318 21.0211 43.8906 19.5923 43.8906C18.1636 43.8906 16.8629 44.2318 15.636 44.9142C14.4091 45.5967 13.4206 46.6658 12.6693 48.1217C11.9179 49.5776 11.5433 51.4605 11.5433 53.7715C11.5433 56.0825 11.9179 57.9664 12.6693 59.4223C13.4206 60.8781 14.4091 61.9473 15.636 62.6297C16.8629 63.3122 18.1813 63.6534 19.5923 63.6534C21.0034 63.6534 22.3437 63.3122 23.5622 62.6297C24.7797 61.9473 25.7641 60.8781 26.5154 59.4223C27.2657 57.9664 27.6413 56.0835 27.6413 53.7715C27.6413 51.7965 27.3666 50.1349 26.8182 48.7845ZM18.3561 40.1506H20.8286C21.2136 40.8062 21.7079 41.3335 22.3125 41.7336C22.917 42.1338 23.7037 42.3344 24.6746 42.3344V43.5359C23.7401 43.5359 22.8203 43.4087 21.9139 43.1533C21.0075 42.899 20.2885 42.444 19.7578 41.7885H19.4279C18.8962 42.444 18.1782 42.899 17.2718 43.1533C16.3654 43.4087 15.4445 43.5359 14.5111 43.5359V42.3344C15.482 42.3344 16.278 42.1297 16.9014 41.7202C17.5236 41.3107 18.0096 40.7875 18.3571 40.1506H18.3561ZM29.4738 36.9297L29.6934 36.9845V38.6771C29.272 38.9687 28.7548 39.2097 28.1408 39.4009C27.5269 39.5922 26.8911 39.7422 26.2313 39.8518C25.5716 39.9614 24.9441 40.0389 24.3499 40.0834C23.7547 40.1289 23.2646 40.1516 22.8806 40.1516V38.9501C23.4301 38.9501 24.1033 38.8819 24.8994 38.7454C25.6954 38.6089 26.5061 38.3907 27.3302 38.0898C28.1544 37.79 28.8682 37.4033 29.4728 36.9297H29.4738ZM39.1722 44.2184V49.0223H36.0681V63.3267H30.8485V49.0223H27.607V44.2184H39.1722ZM43.6665 63.3267V44.2184H51.3857L52.1827 53.0084H52.265L53.0069 44.2184H60.726V63.3267H55.6708L55.8082 51.5618H55.5886L53.803 63.3267H50.6167L48.831 51.5618H48.6114L48.7488 63.3267H43.6665ZM73.8323 44.2452L65.673 44.2173L62.2391 62.5615V63.3256H67.7334L68.1455 59.8049H71.3869L71.799 63.3256H77.2663V62.5615L73.8323 44.2452ZM68.6398 55.3008L69.3547 49.1588H70.1788L70.8927 55.3008H68.6398ZM69.7667 42.8256C68.7594 42.5526 67.9165 42.4574 67.2391 42.5391C66.5617 42.6208 66.0487 42.7894 65.7011 43.0437H65.4535V41.8422C65.6543 41.6602 65.9384 41.4741 66.3047 41.2828C66.671 41.0915 67.1465 40.9644 67.7334 40.9002C68.3193 40.8372 69.0248 40.9137 69.8489 41.1319C70.8562 41.3686 71.6846 41.4731 72.3349 41.4462C72.9853 41.4193 73.4837 41.287 73.8323 41.0502H74.08V42.2238C73.8781 42.4057 73.5992 42.5919 73.2423 42.7832C72.8854 42.9744 72.4275 43.0882 71.8687 43.1244C71.3099 43.1606 70.6096 43.0613 69.7667 42.8245V42.8256ZM78.7804 44.2184H84V63.3267H78.7804V44.2184Z" fill="#37AA6D"/>
<defs>
<linearGradient id="paint0_linear_3822_3892" x1="42.0003" y1="0" x2="42.0003" y2="15.937" gradientUnits="userSpaceOnUse">
<stop offset="0.6" stop-color="#37AA6D"/>
<stop offset="1" stop-color="#F6F6F6"/>
</linearGradient>
<linearGradient id="paint1_linear_3822_3892" x1="41.9998" y1="15.9375" x2="41.9998" y2="36.9292" gradientUnits="userSpaceOnUse">
<stop offset="0.6" stop-color="#37AA6D"/>
<stop offset="1" stop-color="#F6F6F6"/>
</linearGradient>
</defs>
</svg>
